<svg xmlns="http://www.w3.org/2000/svg" xmlns:xlink="http://www.w3.org/1999/xlink" viewBox="0 0 600 267.53"><defs><style>.cls-1{font-size:29.33px;font-family:NEWACADEMY, NEW ACADEMY;}.cls-1,.cls-5{fill:#fff;}.cls-2{letter-spacing:-0.04em;}.cls-3{letter-spacing:-0.02em;}.cls-4{letter-spacing:-0.07em;}.cls-6{fill:url(#linear-gradient);}.cls-7{fill:url(#linear-gradient-2);}</style><linearGradient id="linear-gradient" x1="462.61" y1="184.56" x2="503.29" y2="114.1" gradientUnits="userSpaceOnUse"><stop offset="0" stop-color="#99daf3"/><stop offset="1" stop-color="#27aae1"/></linearGradient><linearGradient id="linear-gradient-2" x1="487.57" y1="123.14" x2="478.33" y2="175.52" gradientUnits="userSpaceOnUse"><stop offset="0" stop-color="#f3f3f3"/><stop offset="0.5" stop-color="#27aae1" stop-opacity="0"/><stop offset="1" stop-color="#f3f3f3"/></linearGradient></defs><g id="Layer_2" data-name="Layer 2"><g id="Layer_1-2" data-name="Layer 1"><text class="cls-1" transform="translate(0 260.6)">ME<tspan class="cls-2" x="49.3" y="0">R</tspan><tspan x="71.74" y="0">AKI INTE</tspan><tspan class="cls-2" x="221.82" y="0">R</tspan><tspan class="cls-3" x="244.26" y="0">A</tspan><tspan x="266.31" y="0">CTIVE APPLI</tspan><tspan class="cls-3" x="475.64" y="0">C</tspan><tspan class="cls-4" x="498.58" y="0">A</tspan><tspan x="519.17" y="0">TION</tspan></text><path class="cls-5" d="M278.71,163.55q0,10.83-13.36,10.83-11.85,0-11.84-10.83v-125l-96,126.75q-7.06,9.33-17.14,9.07-11.6,0-17.89-9.07L25,38.81V163.55q0,10.83-12.35,10.83Q0,174.38,0,163.55V15.12Q0,.51,14.36.5,24.44.5,31.25,9.32L140.61,149.18,248,8.06A19.3,19.3,0,0,1,255,2.52a20,20,0,0,1,8.57-2q15.12,0,15.12,15.12Z"/><path class="cls-5" d="M341.45,163.55q0,10.57-12.85,10.58t-12.85-10.58V11.09Q315.75.5,329.11.5q12.33,0,12.34,10.59Z"/><path class="cls-6" d="M535.27,166.09c-2.55,1.65-11.88,2.15-14.48,1.66-6.49-1.21-28.09-5.37-37.84-5.37s-31.35,4.16-37.84,5.37c-2.6.49-11.93,0-14.48-1.66a14.85,14.85,0,0,1-6.55-12.56v-8.39a14.87,14.87,0,0,1,6.55-12.57c2.55-1.65,11.88-2.15,14.48-1.66,6.49,1.21,28.09,5.37,37.84,5.37s31.35-4.16,37.84-5.37c2.6-.49,11.93,0,14.48,1.66a14.87,14.87,0,0,1,6.55,12.57v8.39A14.85,14.85,0,0,1,535.27,166.09Z"/><path class="cls-7" d="M523.66,130.73c3.84,0,9.68.59,11.61,1.84a14.87,14.87,0,0,1,6.55,12.57v8.39a14.85,14.85,0,0,1-6.55,12.56c-1.93,1.25-7.77,1.84-11.61,1.84a17.22,17.22,0,0,1-2.87-.18c-6.49-1.21-28.09-5.37-37.84-5.37s-31.35,4.16-37.84,5.37a17.22,17.22,0,0,1-2.87.18c-3.84,0-9.68-.59-11.61-1.84a14.85,14.85,0,0,1-6.55-12.56v-8.39a14.87,14.87,0,0,1,6.55-12.57c1.93-1.25,7.77-1.84,11.61-1.84a17.22,17.22,0,0,1,2.87.18c6.49,1.21,28.09,5.37,37.84,5.37s31.35-4.16,37.84-5.37a17.22,17.22,0,0,1,2.87-.18m0-.5a17.82,17.82,0,0,0-3,.19l-1.21.22c-7.48,1.41-27.37,5.14-36.54,5.14s-29.06-3.73-36.55-5.14l-1.2-.22a17.82,17.82,0,0,0-3-.19c-3.45,0-9.72.52-11.89,1.92a15.45,15.45,0,0,0-6.77,13v8.39a15.44,15.44,0,0,0,6.77,13c2.17,1.4,8.44,1.92,11.89,1.92a17.82,17.82,0,0,0,3-.19l1.21-.22c7.49-1.41,27.37-5.14,36.54-5.14S512,166.61,519.48,168l1.22.22a17.82,17.82,0,0,0,3,.19c3.44,0,9.72-.52,11.88-1.92a15.45,15.45,0,0,0,6.78-13v-8.39a15.46,15.46,0,0,0-6.78-13c-2.16-1.4-8.44-1.92-11.88-1.92Z"/><path class="cls-5" d="M599.62,159.51a6.07,6.07,0,0,0-2.14-3.27l-99-147.42Q492.39,0,482.57,0a21,21,0,0,0-9.2,2.27,18.07,18.07,0,0,0-7.43,6.55l-98,147.42a12.05,12.05,0,0,0-2,6.3,10.3,10.3,0,0,0,4.15,8.69,15.27,15.27,0,0,0,9.45,3.15A9.64,9.64,0,0,0,384,173a14.16,14.16,0,0,0,4.54-4.16l8.6-12.79L455.12,67.5h0l27.95-43.81,26.07,41.86h0L565.41,152h0l11.15,16.63a13.84,13.84,0,0,0,5.17,4,13.65,13.65,0,0,0,5.42,1.26,14.17,14.17,0,0,0,8.94-3,9.9,9.9,0,0,0,3.91-8.31A15,15,0,0,0,599.62,159.51Z"/></g></g></svg>